<svg width="21" height="20" viewBox="0 0 21 20" fill="none" xmlns="http://www.w3.org/2000/svg">
<path d="M2.5 2V6H6.5V2H2.5ZM2.5 0H6.5C7.03043 0 7.53914 0.210714 7.91421 0.585786C8.28929 0.960859 8.5 1.46957 8.5 2V6C8.5 6.53043 8.28929 7.03914 7.91421 7.41421C7.53914 7.78929 7.03043 8 6.5 8H2.5C1.96957 8 1.46086 7.78929 1.08579 7.41421C0.710714 7.03914 0.5 6.53043 0.5 6V2C0.5 1.46957 0.710714 0.960859 1.08579 0.585786C1.46086 0.210714 1.96957 0 2.5 0V0ZM14.5 0H18.5C19.0304 0 19.5391 0.210714 19.9142 0.585786C20.2893 0.960859 20.5 1.46957 20.5 2V6C20.5 6.53043 20.2893 7.03914 19.9142 7.41421C19.5391 7.78929 19.0304 8 18.5 8H14.5C13.9696 8 13.4609 7.78929 13.0858 7.41421C12.7107 7.03914 12.5 6.53043 12.5 6V2C12.5 1.46957 12.7107 0.960859 13.0858 0.585786C13.4609 0.210714 13.9696 0 14.5 0V0ZM14.5 2V6H18.5V2H14.5ZM14.5 12H18.5C19.0304 12 19.5391 12.2107 19.9142 12.5858C20.2893 12.9609 20.5 13.4696 20.5 14V18C20.5 18.5304 20.2893 19.0391 19.9142 19.4142C19.5391 19.7893 19.0304 20 18.5 20H14.5C13.9696 20 13.4609 19.7893 13.0858 19.4142C12.7107 19.0391 12.5 18.5304 12.5 18V14C12.5 13.4696 12.7107 12.9609 13.0858 12.5858C13.4609 12.2107 13.9696 12 14.5 12ZM14.5 14V18H18.5V14H14.5ZM2.5 12H6.5C7.03043 12 7.53914 12.2107 7.91421 12.5858C8.28929 12.9609 8.5 13.4696 8.5 14V18C8.5 18.5304 8.28929 19.0391 7.91421 19.4142C7.53914 19.7893 7.03043 20 6.5 20H2.5C1.96957 20 1.46086 19.7893 1.08579 19.4142C0.710714 19.0391 0.5 18.5304 0.5 18V14C0.5 13.4696 0.710714 12.9609 1.08579 12.5858C1.46086 12.2107 1.96957 12 2.5 12ZM2.5 14V18H6.5V14H2.5Z" fill="#555D68"/>
</svg>
