<svg width="25" height="22" viewBox="0 0 25 22" fill="none" xmlns="http://www.w3.org/2000/svg">
<path d="M8.64551 0.349365H3.39551C1.70801 0.349365 0.395508 1.70874 0.395508 3.34937V9.34937C0.395508 11.0369 1.70801 12.3494 3.39551 12.3494H6.39551V13.4744C6.39551 14.9275 5.17676 16.0994 3.77051 16.0994H3.02051C1.94238 16.0994 1.14551 16.9431 1.14551 17.9744V19.4744C1.14551 20.5525 1.94238 21.3494 3.02051 21.3494H3.77051C8.08301 21.3494 11.6455 17.8337 11.6455 13.4744V3.34937C11.6455 1.70874 10.2861 0.349365 8.64551 0.349365ZM10.1455 13.4744C10.1455 17.0369 7.28613 19.8494 3.77051 19.8494H3.02051C2.78613 19.8494 2.64551 19.7087 2.64551 19.4744V17.9744C2.64551 17.7869 2.78613 17.5994 3.02051 17.5994H3.77051C6.02051 17.5994 7.89551 15.7712 7.89551 13.4744V10.8494H3.39551C2.55176 10.8494 1.89551 10.1931 1.89551 9.34937V3.34937C1.89551 2.55249 2.55176 1.84937 3.39551 1.84937H8.64551C9.44238 1.84937 10.1455 2.55249 10.1455 3.34937V13.4744ZM21.3955 0.349365H16.1455C14.458 0.349365 13.1455 1.70874 13.1455 3.34937V9.34937C13.1455 11.0369 14.458 12.3494 16.1455 12.3494H19.1455V13.4744C19.1455 14.9275 17.9268 16.0994 16.5205 16.0994H15.7705C14.6924 16.0994 13.8955 16.9431 13.8955 17.9744V19.4744C13.8955 20.5525 14.6924 21.3494 15.7705 21.3494H16.5205C20.833 21.3494 24.3955 17.8337 24.3955 13.4744V3.34937C24.3955 1.70874 23.0361 0.349365 21.3955 0.349365ZM22.8955 13.4744C22.8955 17.0369 20.0361 19.8494 16.5205 19.8494H15.7705C15.5361 19.8494 15.3955 19.7087 15.3955 19.4744V17.9744C15.3955 17.7869 15.5361 17.5994 15.7705 17.5994H16.5205C18.7705 17.5994 20.6455 15.7712 20.6455 13.4744V10.8494H16.1455C15.3018 10.8494 14.6455 10.1931 14.6455 9.34937V3.34937C14.6455 2.55249 15.3018 1.84937 16.1455 1.84937H21.3955C22.1924 1.84937 22.8955 2.55249 22.8955 3.34937V13.4744Z" fill="#6345ED"/>
</svg>
