<svg width="18" height="15" viewBox="0 0 18 15" fill="none" xmlns="http://www.w3.org/2000/svg">
<path d="M9.0332 0.889557C4.5957 0.889557 1.0332 3.82706 1.0332 7.38956C1.0332 8.88956 1.62695 10.2646 2.6582 11.3583C2.2207 12.5771 1.25195 13.6396 1.2207 13.6396C1.00195 13.8583 0.970703 14.1708 1.06445 14.4521C1.18945 14.7333 1.4707 14.8896 1.7832 14.8896C3.68945 14.8896 5.2207 14.1083 6.12695 13.4521C7.0332 13.7333 8.00195 13.8896 9.0332 13.8896C13.4395 13.8896 17.0332 10.9833 17.0332 7.38956C17.0332 3.82706 13.4395 0.889557 9.0332 0.889557ZM9.0332 12.3896C8.18945 12.3896 7.3457 12.2646 6.56445 12.0146L5.8457 11.7958L5.25195 12.2333C4.81445 12.5458 4.18945 12.8896 3.43945 13.1396C3.68945 12.7646 3.9082 12.3271 4.06445 11.8896L4.4082 11.0146L3.75195 10.3271C3.18945 9.73331 2.5332 8.73331 2.5332 7.38956C2.5332 4.63956 5.43945 2.38956 9.0332 2.38956C12.5957 2.38956 15.5332 4.63956 15.5332 7.38956C15.5332 10.1708 12.5957 12.3896 9.0332 12.3896Z" fill="#6345ED"/>
</svg>
