<svg width="18" height="20" viewBox="0 0 18 20" fill="none" xmlns="http://www.w3.org/2000/svg">
<path d="M6.25 2.66666V1.74999C6.25 1.50688 6.34658 1.27372 6.51849 1.10181C6.69039 0.929905 6.92355 0.833328 7.16667 0.833328H10.8333C11.0764 0.833328 11.3096 0.929905 11.4815 1.10181C11.6534 1.27372 11.75 1.50688 11.75 1.74999V2.66666H15.4167C15.9029 2.66666 16.3692 2.85982 16.713 3.20363C17.0568 3.54745 17.25 4.01376 17.25 4.49999V5.41666C17.25 5.90289 17.0568 6.36921 16.713 6.71302C16.3692 7.05684 15.9029 7.25 15.4167 7.25H15.2948L14.6714 16.6C14.6249 17.296 14.3156 17.9483 13.8063 18.4249C13.2969 18.9014 12.6254 19.1666 11.9278 19.1667H6.0905C5.39353 19.1666 4.72257 18.902 4.21327 18.4262C3.70396 17.9504 3.39431 17.299 3.34692 16.6037L2.70892 7.25H2.58333C2.0971 7.25 1.63079 7.05684 1.28697 6.71302C0.943154 6.36921 0.75 5.90289 0.75 5.41666V4.49999C0.75 4.01376 0.943154 3.54745 1.28697 3.20363C1.63079 2.85982 2.0971 2.66666 2.58333 2.66666H6.25ZM15.4167 4.49999H2.58333V5.41666H15.4167V4.49999ZM4.54592 7.25L5.17567 16.479C5.19147 16.7108 5.29473 16.928 5.46456 17.0866C5.6344 17.2452 5.85813 17.3334 6.0905 17.3333H11.9278C12.1605 17.3334 12.3845 17.2449 12.5544 17.0859C12.7242 16.927 12.8273 16.7093 12.8427 16.4772L13.4568 7.25H4.54683H4.54592ZM7.16667 8.16666C7.40978 8.16666 7.64294 8.26324 7.81485 8.43515C7.98676 8.60706 8.08333 8.84021 8.08333 9.08333V15.5C8.08333 15.7431 7.98676 15.9763 7.81485 16.1482C7.64294 16.3201 7.40978 16.4167 7.16667 16.4167C6.92355 16.4167 6.69039 16.3201 6.51849 16.1482C6.34658 15.9763 6.25 15.7431 6.25 15.5V9.08333C6.25 8.84021 6.34658 8.60706 6.51849 8.43515C6.69039 8.26324 6.92355 8.16666 7.16667 8.16666ZM10.8333 8.16666C11.0764 8.16666 11.3096 8.26324 11.4815 8.43515C11.6534 8.60706 11.75 8.84021 11.75 9.08333V15.5C11.75 15.7431 11.6534 15.9763 11.4815 16.1482C11.3096 16.3201 11.0764 16.4167 10.8333 16.4167C10.5902 16.4167 10.3571 16.3201 10.1852 16.1482C10.0132 15.9763 9.91667 15.7431 9.91667 15.5V9.08333C9.91667 8.84021 10.0132 8.60706 10.1852 8.43515C10.3571 8.26324 10.5902 8.16666 10.8333 8.16666Z" fill="#F5523B"/>
</svg>
