<svg width="23" height="17" viewBox="0 0 23 17" fill="none" xmlns="http://www.w3.org/2000/svg">
<path d="M19.2861 6.27069C19.1455 4.23163 17.458 2.57928 15.3838 2.57928C15.1025 2.57928 14.8213 2.61444 14.5752 2.68475C13.4502 1.2785 11.7275 0.329285 9.75879 0.329285C6.77051 0.329285 4.27441 2.43866 3.67676 5.25116C1.56738 6.13007 0.196289 8.16913 0.196289 10.4543C0.196289 13.5832 2.69238 16.0793 5.82129 16.0793H17.6338C20.4111 16.0793 22.6963 13.8293 22.6963 11.0168C22.6963 8.87225 21.29 6.97382 19.2861 6.27069ZM17.6338 14.3918H5.82129C3.6416 14.3918 1.88379 12.634 1.88379 10.4543C1.88379 8.48553 3.3252 6.83319 5.25879 6.5871V6.51678C5.25879 4.05585 7.2627 2.01678 9.75879 2.01678C11.6221 2.01678 13.2393 3.17694 13.9072 4.82928C14.2939 4.47772 14.8213 4.26678 15.3838 4.26678C16.6143 4.26678 17.6338 5.28632 17.6338 6.51678C17.6338 6.93866 17.4932 7.32538 17.3174 7.67694C17.4229 7.67694 17.5283 7.64178 17.6338 7.64178C19.4971 7.64178 21.0088 9.1535 21.0088 11.0168C21.0088 12.8801 19.4971 14.3918 17.6338 14.3918ZM10.6025 4.51288C10.4268 4.3371 10.1807 4.3371 10.0049 4.51288L6.34863 8.16913C6.17285 8.34491 6.17285 8.591 6.34863 8.76678L6.94629 9.36444C7.12207 9.54022 7.36816 9.54022 7.54395 9.36444L9.47754 7.39569V12.2824C9.47754 12.5285 9.65332 12.7043 9.89941 12.7043H10.7432C10.9541 12.7043 11.165 12.5285 11.165 12.2824V7.39569L13.0635 9.36444C13.2393 9.54022 13.4854 9.54022 13.6611 9.36444L14.2588 8.76678C14.4346 8.591 14.4346 8.34491 14.2588 8.16913L10.6025 4.51288Z" fill="#6345ED"/>
</svg>
