<svg width="17" height="14" viewBox="0 0 17 14" fill="none" xmlns="http://www.w3.org/2000/svg">
<path fill-rule="evenodd" clip-rule="evenodd" d="M8.70309 0.292786C8.51557 0.105315 8.26126 0 7.99609 0C7.73093 0 7.47662 0.105315 7.28909 0.292786L1.28909 6.29279C1.10162 6.48031 0.996307 6.73462 0.996307 6.99979C0.996307 7.26495 1.10162 7.51926 1.28909 7.70679L7.28909 13.7068C7.4777 13.8889 7.7303 13.9897 7.99249 13.9875C8.25469 13.9852 8.5055 13.88 8.69091 13.6946C8.87632 13.5092 8.98149 13.2584 8.98377 12.9962C8.98605 12.734 8.88525 12.4814 8.70309 12.2928L4.41009 7.99979H15.9961C16.2613 7.99979 16.5157 7.89443 16.7032 7.70689C16.8907 7.51936 16.9961 7.265 16.9961 6.99979C16.9961 6.73457 16.8907 6.48022 16.7032 6.29268C16.5157 6.10514 16.2613 5.99979 15.9961 5.99979H4.41009L8.70309 1.70679C8.89056 1.51926 8.99588 1.26495 8.99588 0.999786C8.99588 0.734622 8.89056 0.480314 8.70309 0.292786Z" fill="#6345ED"/>
</svg>
