<svg width="17" height="16" viewBox="0 0 17 16" fill="none" xmlns="http://www.w3.org/2000/svg">
<path d="M8.50293 3.13956C6.84668 3.13956 5.50293 4.48331 5.50293 6.13956C5.50293 7.79581 6.84668 9.13956 8.50293 9.13956C10.1592 9.13956 11.5029 7.79581 11.5029 6.13956C11.5029 4.48331 10.1592 3.13956 8.50293 3.13956ZM8.50293 7.63956C7.65918 7.63956 7.00293 6.98331 7.00293 6.13956C7.00293 5.32706 7.65918 4.63956 8.50293 4.63956C9.31543 4.63956 10.0029 5.32706 10.0029 6.13956C10.0029 6.98331 9.31543 7.63956 8.50293 7.63956ZM8.50293 0.139557C4.22168 0.139557 0.75293 3.60831 0.75293 7.88956C0.75293 12.1708 4.22168 15.6396 8.50293 15.6396C12.7842 15.6396 16.2529 12.1708 16.2529 7.88956C16.2529 3.60831 12.7842 0.139557 8.50293 0.139557ZM8.50293 14.1396C6.94043 14.1396 5.50293 13.5771 4.40918 12.6396C4.87793 11.9208 5.69043 11.4208 6.59668 11.4208C7.25293 11.6083 7.87793 11.7021 8.50293 11.7021C9.09668 11.7021 9.72168 11.6083 10.3779 11.4208C11.2842 11.4521 12.0967 11.9208 12.5654 12.6396C11.4717 13.5771 10.0342 14.1396 8.50293 14.1396ZM13.5654 11.5146C12.8154 10.5458 11.6279 9.88956 10.2842 9.88956C9.97168 9.88956 9.47168 10.2021 8.50293 10.2021C7.50293 10.2021 7.00293 9.88956 6.69043 9.88956C5.34668 9.88956 4.15918 10.5458 3.40918 11.5146C2.65918 10.5146 2.25293 9.26456 2.25293 7.88956C2.25293 4.45206 5.03418 1.63956 8.50293 1.63956C11.9404 1.63956 14.7529 4.45206 14.7529 7.88956C14.7529 9.26456 14.3154 10.5146 13.5654 11.5146Z" fill="#6345ED"/>
</svg>
