<svg width="12" height="12" viewBox="0 0 12 12" fill="none" xmlns="http://www.w3.org/2000/svg">
<path d="M5.60938 0.796143L5.10156 1.27856C4.97461 1.40552 4.97461 1.60864 5.10156 1.71021L9.03711 5.64575H0.378906C0.201172 5.64575 0.0742188 5.7981 0.0742188 5.95044V6.66138C0.0742188 6.83911 0.201172 6.96606 0.378906 6.96606H9.03711L5.10156 10.927C4.97461 11.0286 4.97461 11.2317 5.10156 11.3586L5.60938 11.8411C5.71094 11.968 5.91406 11.968 6.04102 11.8411L11.3477 6.53442C11.4746 6.40747 11.4746 6.22974 11.3477 6.10278L6.04102 0.796143C5.91406 0.669189 5.71094 0.669189 5.60938 0.796143Z" fill="#6345ED"/>
</svg>
