<svg width="19" height="19" viewBox="0 0 19 19" fill="none" xmlns="http://www.w3.org/2000/svg">
<path d="M18.5703 16.683L14.3164 12.4291C14.2109 12.3587 14.1055 12.2884 14 12.2884H13.543C14.6328 11.0228 15.3359 9.33531 15.3359 7.50719C15.3359 3.49937 12.0312 0.194687 8.02344 0.194687C3.98047 0.194687 0.710938 3.49937 0.710938 7.50719C0.710938 11.5502 3.98047 14.8197 8.02344 14.8197C9.85156 14.8197 11.5039 14.1517 12.8047 13.0619V13.5189C12.8047 13.6244 12.8398 13.7298 12.9102 13.8353L17.1641 18.0892C17.3398 18.265 17.6211 18.265 17.7617 18.0892L18.5703 17.2806C18.7461 17.14 18.7461 16.8587 18.5703 16.683ZM8.02344 13.1322C4.89453 13.1322 2.39844 10.6361 2.39844 7.50719C2.39844 4.41344 4.89453 1.88219 8.02344 1.88219C11.1172 1.88219 13.6484 4.41344 13.6484 7.50719C13.6484 10.6361 11.1172 13.1322 8.02344 13.1322Z" fill="#14161B"/>
</svg>
