<svg width="13" height="12" viewBox="0 0 13 12" fill="none" xmlns="http://www.w3.org/2000/svg">
<path d="M5.85802 1.19531C6.08302 0.504559 7.06027 0.504559 7.28452 1.19531L8.08702 3.66431C8.13605 3.81467 8.23136 3.94569 8.35932 4.03864C8.48729 4.13158 8.64136 4.18169 8.79952 4.18181H11.396C12.1228 4.18181 12.4243 5.11181 11.837 5.53931L9.73702 7.06481C9.60879 7.15783 9.51331 7.28907 9.46427 7.4397C9.41523 7.59033 9.41514 7.75262 9.46402 7.90331L10.2665 10.3723C10.4915 11.0631 9.70027 11.6383 9.11152 11.2108L7.01152 9.68531C6.88342 9.59231 6.72919 9.54223 6.57089 9.54223C6.4126 9.54223 6.25836 9.59231 6.13027 9.68531L4.03027 11.2108C3.44227 11.6383 2.65177 11.0631 2.87602 10.3723L3.67852 7.90331C3.7274 7.75262 3.72731 7.59033 3.67827 7.4397C3.62923 7.28907 3.53375 7.15783 3.40552 7.06481L1.30627 5.54006C0.71902 5.11256 1.02127 4.18256 1.74727 4.18256H4.34302C4.50131 4.1826 4.65555 4.13256 4.78366 4.03961C4.91178 3.94665 5.0072 3.81555 5.05627 3.66506L5.85877 1.19606L5.85802 1.19531Z" fill="#FA9600"/>
</svg>
