<svg width="15" height="17" viewBox="0 0 15 17" fill="none" xmlns="http://www.w3.org/2000/svg">
<path d="M4.92676 9.88956C5.11426 9.88956 5.30176 9.73331 5.30176 9.51456V8.26456C5.30176 8.07706 5.11426 7.88956 4.92676 7.88956H3.67676C3.45801 7.88956 3.30176 8.07706 3.30176 8.26456V9.51456C3.30176 9.73331 3.45801 9.88956 3.67676 9.88956H4.92676ZM8.30176 9.51456V8.26456C8.30176 8.07706 8.11426 7.88956 7.92676 7.88956H6.67676C6.45801 7.88956 6.30176 8.07706 6.30176 8.26456V9.51456C6.30176 9.73331 6.45801 9.88956 6.67676 9.88956H7.92676C8.11426 9.88956 8.30176 9.73331 8.30176 9.51456ZM11.3018 9.51456V8.26456C11.3018 8.07706 11.1143 7.88956 10.9268 7.88956H9.67676C9.45801 7.88956 9.30176 8.07706 9.30176 8.26456V9.51456C9.30176 9.73331 9.45801 9.88956 9.67676 9.88956H10.9268C11.1143 9.88956 11.3018 9.73331 11.3018 9.51456ZM8.30176 12.5146V11.2646C8.30176 11.0771 8.11426 10.8896 7.92676 10.8896H6.67676C6.45801 10.8896 6.30176 11.0771 6.30176 11.2646V12.5146C6.30176 12.7333 6.45801 12.8896 6.67676 12.8896H7.92676C8.11426 12.8896 8.30176 12.7333 8.30176 12.5146ZM5.30176 12.5146V11.2646C5.30176 11.0771 5.11426 10.8896 4.92676 10.8896H3.67676C3.45801 10.8896 3.30176 11.0771 3.30176 11.2646V12.5146C3.30176 12.7333 3.45801 12.8896 3.67676 12.8896H4.92676C5.11426 12.8896 5.30176 12.7333 5.30176 12.5146ZM11.3018 12.5146V11.2646C11.3018 11.0771 11.1143 10.8896 10.9268 10.8896H9.67676C9.45801 10.8896 9.30176 11.0771 9.30176 11.2646V12.5146C9.30176 12.7333 9.45801 12.8896 9.67676 12.8896H10.9268C11.1143 12.8896 11.3018 12.7333 11.3018 12.5146ZM14.3018 4.38956C14.3018 3.57706 13.6143 2.88956 12.8018 2.88956H11.3018V1.26456C11.3018 1.07706 11.1143 0.889557 10.9268 0.889557H9.67676C9.45801 0.889557 9.30176 1.07706 9.30176 1.26456V2.88956H5.30176V1.26456C5.30176 1.07706 5.11426 0.889557 4.92676 0.889557H3.67676C3.45801 0.889557 3.30176 1.07706 3.30176 1.26456V2.88956H1.80176C0.958008 2.88956 0.301758 3.57706 0.301758 4.38956V15.3896C0.301758 16.2333 0.958008 16.8896 1.80176 16.8896H12.8018C13.6143 16.8896 14.3018 16.2333 14.3018 15.3896V4.38956ZM12.8018 15.2021C12.8018 15.3271 12.708 15.3896 12.6143 15.3896H1.98926C1.86426 15.3896 1.80176 15.3271 1.80176 15.2021V5.88956H12.8018V15.2021Z" fill="#6345ED"/>
</svg>
