<svg width="24" height="24" viewBox="0 0 24 24" fill="none" xmlns="http://www.w3.org/2000/svg">
<path d="M11.2937 5.55L12.0007 6.258L12.7077 5.551C13.1712 5.08337 13.7226 4.7119 14.3301 4.45793C14.9376 4.20395 15.5893 4.07247 16.2477 4.07103C16.9062 4.06959 17.5584 4.19821 18.167 4.44953C18.7756 4.70084 19.3286 5.06989 19.7942 5.53548C20.2598 6.00108 20.6289 6.55405 20.8802 7.16266C21.1315 7.77126 21.2601 8.42351 21.2587 9.08196C21.2572 9.74042 21.1257 10.3921 20.8718 10.9996C20.6178 11.6071 20.2463 12.1584 19.7787 12.622L12.7087 19.693C12.6158 19.786 12.5055 19.8597 12.3841 19.9101C12.2627 19.9604 12.1326 19.9863 12.0012 19.9863C11.8698 19.9863 11.7397 19.9604 11.6183 19.9101C11.4969 19.8597 11.3866 19.786 11.2937 19.693L4.2227 12.622C3.74871 12.1599 3.37118 11.6084 3.11203 10.9993C2.85287 10.3902 2.71723 9.73566 2.71299 9.07373C2.70875 8.41181 2.83599 7.75563 3.08732 7.14325C3.33865 6.53088 3.70908 5.97451 4.17711 5.50642C4.64514 5.03832 5.20146 4.66782 5.81379 4.4164C6.42613 4.16498 7.08229 4.03765 7.74422 4.0418C8.40615 4.04595 9.06066 4.18149 9.6698 4.44056C10.2789 4.69963 10.8306 5.07708 11.2927 5.551L11.2937 5.55Z" fill="#F97379"/>
</svg>
