<svg width="14" height="14" viewBox="0 0 14 14" fill="none" xmlns="http://www.w3.org/2000/svg">
<path d="M12.333 9.66671H13.6663V13.6667H9.66634V12.3334H4.33301V13.6667H0.333008V9.66671H1.66634V4.33337H0.333008V0.333374H4.33301V1.66671H9.66634V0.333374H13.6663V4.33337H12.333V9.66671ZM10.9997 9.66671V4.33337H9.66634V3.00004H4.33301V4.33337H2.99967V9.66671H4.33301V11H9.66634V9.66671H10.9997ZM1.66634 1.66671V3.00004H2.99967V1.66671H1.66634ZM1.66634 11V12.3334H2.99967V11H1.66634ZM10.9997 1.66671V3.00004H12.333V1.66671H10.9997ZM10.9997 11V12.3334H12.333V11H10.9997Z" fill="#131740"/>
</svg>
