<svg width="12" height="14" viewBox="0 0 12 14" fill="none" xmlns="http://www.w3.org/2000/svg">
<path d="M9.33333 9.66671H10.6667V1.66671H4V3.00004H9.33333V9.66671ZM9.33333 11V13C9.33333 13.368 9.03333 13.6667 8.662 13.6667H0.671333C0.583418 13.6672 0.496265 13.6504 0.414882 13.6171C0.333498 13.5839 0.259489 13.5349 0.197106 13.4729C0.134723 13.411 0.0851953 13.3373 0.0513695 13.2561C0.0175437 13.175 8.62495e-05 13.088 0 13L0.00200001 3.66671C0.00200001 3.29871 0.302 3.00004 0.673334 3.00004H2.66667V1.00004C2.66667 0.82323 2.7369 0.65366 2.86193 0.528636C2.98695 0.403612 3.15652 0.333374 3.33333 0.333374H11.3333C11.5101 0.333374 11.6797 0.403612 11.8047 0.528636C11.9298 0.65366 12 0.82323 12 1.00004V10.3334C12 10.5102 11.9298 10.6798 11.8047 10.8048C11.6797 10.9298 11.5101 11 11.3333 11H9.33333ZM1.33533 4.33337L1.33333 12.3334H8V4.33337H1.33533ZM2.66667 9.66671H5.66667C5.75507 9.66671 5.83986 9.63159 5.90237 9.56908C5.96488 9.50656 6 9.42178 6 9.33337C6 9.24497 5.96488 9.16018 5.90237 9.09767C5.83986 9.03516 5.75507 9.00004 5.66667 9.00004H3.66667C3.22464 9.00004 2.80072 8.82445 2.48816 8.51189C2.17559 8.19932 2 7.7754 2 7.33337C2 6.89135 2.17559 6.46742 2.48816 6.15486C2.80072 5.8423 3.22464 5.66671 3.66667 5.66671H4V5.00004H5.33333V5.66671H6.66667V7.00004H3.66667C3.57826 7.00004 3.49348 7.03516 3.43096 7.09767C3.36845 7.16018 3.33333 7.24497 3.33333 7.33337C3.33333 7.42178 3.36845 7.50656 3.43096 7.56908C3.49348 7.63159 3.57826 7.66671 3.66667 7.66671H5.66667C6.10869 7.66671 6.53262 7.8423 6.84518 8.15486C7.15774 8.46742 7.33333 8.89135 7.33333 9.33337C7.33333 9.7754 7.15774 10.1993 6.84518 10.5119C6.53262 10.8244 6.10869 11 5.66667 11H5.33333V11.6667H4V11H2.66667V9.66671Z" fill="#131740"/>
</svg>
