<svg width="14" height="14" viewBox="0 0 14 14" fill="none" xmlns="http://www.w3.org/2000/svg">
<path d="M3.11301 11C3.25074 10.6096 3.50617 10.2716 3.84407 10.0325C4.18198 9.7934 4.58573 9.665 4.99967 9.665C5.41362 9.665 5.81737 9.7934 6.15527 10.0325C6.49318 10.2716 6.74861 10.6096 6.88634 11H13.6663V12.3333H6.88634C6.74861 12.7237 6.49318 13.0617 6.15527 13.3008C5.81737 13.5399 5.41362 13.6683 4.99967 13.6683C4.58573 13.6683 4.18198 13.5399 3.84407 13.3008C3.50617 13.0617 3.25074 12.7237 3.11301 12.3333H0.333008V11H3.11301ZM7.11301 6.3333C7.25074 5.94294 7.50617 5.60492 7.84407 5.36582C8.18198 5.12673 8.58573 4.99833 8.99967 4.99833C9.41362 4.99833 9.81737 5.12673 10.1553 5.36582C10.4932 5.60492 10.7486 5.94294 10.8863 6.3333H13.6663V7.66663H10.8863C10.7486 8.05699 10.4932 8.39501 10.1553 8.63411C9.81737 8.8732 9.41362 9.0016 8.99967 9.0016C8.58573 9.0016 8.18198 8.8732 7.84407 8.63411C7.50617 8.39501 7.25074 8.05699 7.11301 7.66663H0.333008V6.3333H7.11301ZM3.11301 1.66663C3.25074 1.27628 3.50617 0.938255 3.84407 0.699158C4.18198 0.460062 4.58573 0.331665 4.99967 0.331665C5.41362 0.331665 5.81737 0.460062 6.15527 0.699158C6.49318 0.938255 6.74861 1.27628 6.88634 1.66663H13.6663V2.99997H6.88634C6.74861 3.39032 6.49318 3.72834 6.15527 3.96744C5.81737 4.20654 5.41362 4.33493 4.99967 4.33493C4.58573 4.33493 4.18198 4.20654 3.84407 3.96744C3.50617 3.72834 3.25074 3.39032 3.11301 2.99997H0.333008V1.66663H3.11301Z" fill="#131740"/>
</svg>
