<svg width="12" height="16" viewBox="0 0 12 16" fill="none" xmlns="http://www.w3.org/2000/svg">
<path d="M0.522 1.88396L6 0.666626L11.478 1.88396C11.626 1.91687 11.7584 1.99927 11.8533 2.11756C11.9482 2.23586 12 2.38297 12 2.53463V9.19263C12 9.85112 11.8373 10.4994 11.5266 11.08C11.2158 11.6605 10.7666 12.1554 10.2187 12.5206L6 15.3333L1.78133 12.5206C1.23352 12.1554 0.784307 11.6607 0.473565 11.0803C0.162824 10.4998 0.000157571 9.85167 0 9.19329V2.53463C2.60252e-05 2.38297 0.0517586 2.23586 0.14666 2.11756C0.241561 1.99927 0.373958 1.91687 0.522 1.88396V1.88396ZM6.66667 6.66663V3.33329L3.33333 7.99996H5.33333V11.3333L8.66667 6.66663H6.66667Z" fill="#131740"/>
</svg>
