<svg width="28" height="28" viewBox="0 0 28 28" fill="none" xmlns="http://www.w3.org/2000/svg">
<mask id="mask0_59_1101" style="mask-type:alpha" maskUnits="userSpaceOnUse" x="2" y="1" width="25" height="24">
<path fill-rule="evenodd" clip-rule="evenodd" d="M25.667 2.33325H3.2401V24.265H25.667V2.33325Z" fill="white" stroke="white"/>
</mask>
<g mask="url(#mask0_59_1101)">
<path fill-rule="evenodd" clip-rule="evenodd" d="M14.4528 4.0223C19.6839 4.0223 23.9398 8.183 23.9398 13.2986C23.9398 18.4141 19.6839 22.576 14.4528 22.576C9.22287 22.576 4.96704 18.4141 4.96704 13.2986C4.96704 8.183 9.22287 4.0223 14.4528 4.0223ZM14.4529 24.265C20.6362 24.265 25.667 19.3454 25.667 13.2986C25.667 7.25177 20.6362 2.33325 14.4529 2.33325C8.26948 2.33325 3.23987 7.25177 3.23987 13.2986C3.23987 19.3454 8.26948 24.265 14.4529 24.265Z" fill="white"/>
<path d="M14.4528 3.5223C19.9494 3.5223 24.4398 7.89631 24.4398 13.2986H23.4398C23.4398 8.46969 19.4185 4.5223 14.4528 4.5223V3.5223ZM24.4398 13.2986C24.4398 18.7008 19.9495 23.076 14.4528 23.076V22.076C19.4184 22.076 23.4398 18.1275 23.4398 13.2986H24.4398ZM14.4528 23.076C8.95727 23.076 4.46704 18.7007 4.46704 13.2986H5.46704C5.46704 18.1276 9.48846 22.076 14.4528 22.076V23.076ZM4.46704 13.2986C4.46704 7.89635 8.95735 3.5223 14.4528 3.5223V4.5223C9.48838 4.5223 5.46704 8.46965 5.46704 13.2986H4.46704ZM14.4529 23.765C20.3707 23.765 25.167 19.0588 25.167 13.2986H26.167C26.167 19.632 20.9018 24.765 14.4529 24.765V23.765ZM25.167 13.2986C25.167 7.53844 20.3707 2.83325 14.4529 2.83325V1.83325C20.9017 1.83325 26.167 6.96509 26.167 13.2986H25.167ZM14.4529 2.83325C8.53503 2.83325 3.73987 7.53838 3.73987 13.2986H2.73987C2.73987 6.96516 8.00392 1.83325 14.4529 1.83325V2.83325ZM3.73987 13.2986C3.73987 19.0588 8.5351 23.765 14.4529 23.765V24.765C8.00385 24.765 2.73987 19.6319 2.73987 13.2986H3.73987Z" fill="white"/>
</g>
<mask id="mask1_59_1101" style="mask-type:alpha" maskUnits="userSpaceOnUse" x="1" y="19" width="8" height="8">
<path fill-rule="evenodd" clip-rule="evenodd" d="M8.11914 20.0198H2.33411V25.6666H8.11914V20.0198Z" fill="white" stroke="white"/>
</mask>
<g mask="url(#mask1_59_1101)">
<path fill-rule="evenodd" clip-rule="evenodd" d="M3.19748 25.6666C3.41741 25.6666 3.63849 25.5844 3.80776 25.42L7.86553 21.4631C8.20291 21.1331 8.20406 20.5983 7.86668 20.2683C7.53045 19.9362 6.98351 19.9384 6.64497 20.2661L2.5872 24.2241C2.24982 24.554 2.24867 25.0878 2.58605 25.4177C2.75417 25.5844 2.9764 25.6666 3.19748 25.6666Z" fill="white"/>
<path d="M3.19748 25.6666C3.41741 25.6666 3.63849 25.5844 3.80776 25.42L7.86553 21.4631C8.20291 21.1331 8.20406 20.5983 7.86668 20.2683C7.53045 19.9362 6.98351 19.9384 6.64497 20.2661L2.5872 24.2241C2.24982 24.554 2.24867 25.0878 2.58605 25.4177C2.75417 25.5844 2.9764 25.6666 3.19748 25.6666" stroke="white"/>
</g>
</svg>
