<svg width="15" height="15" viewBox="0 0 15 15" fill="none" xmlns="http://www.w3.org/2000/svg">
<path d="M11.7718 10.7705L14.8056 13.8035L13.8033 14.8058L10.7702 11.772C9.64165 12.6767 8.23792 13.1688 6.7915 13.1667C3.2725 13.1667 0.416504 10.3107 0.416504 6.79175C0.416504 3.27275 3.2725 0.416748 6.7915 0.416748C10.3105 0.416748 13.1665 3.27275 13.1665 6.79175C13.1686 8.23817 12.6765 9.6419 11.7718 10.7705ZM10.3509 10.2449C11.2498 9.32042 11.7519 8.08122 11.7498 6.79175C11.7498 4.05191 9.53063 1.83341 6.7915 1.83341C4.05167 1.83341 1.83317 4.05191 1.83317 6.79175C1.83317 9.53087 4.05167 11.7501 6.7915 11.7501C8.08097 11.7521 9.32017 11.2501 10.2446 10.3511L10.3509 10.2449V10.2449Z" fill="#5A5D79"/>
</svg>
