<svg width="16" height="16" viewBox="0 0 16 16" fill="none" xmlns="http://www.w3.org/2000/svg">
<g clip-path="url(#clip0_160_508)">
<path d="M4.66732 4.66671V2.00004C4.66732 1.82323 4.73756 1.65366 4.86258 1.52864C4.9876 1.40361 5.15717 1.33337 5.33398 1.33337H14.0007C14.1775 1.33337 14.347 1.40361 14.4721 1.52864C14.5971 1.65366 14.6673 1.82323 14.6673 2.00004V10.6667C14.6673 10.8435 14.5971 11.0131 14.4721 11.1381C14.347 11.2631 14.1775 11.3334 14.0007 11.3334H11.334V13.9954C11.334 14.366 11.0347 14.6667 10.6627 14.6667H2.00532C1.91713 14.6668 1.8298 14.6495 1.74831 14.6158C1.66682 14.5821 1.59277 14.5326 1.53042 14.4703C1.46806 14.4079 1.41861 14.3339 1.38491 14.2524C1.3512 14.1709 1.3339 14.0836 1.33398 13.9954L1.33598 5.33804C1.33598 4.96737 1.63532 4.66671 2.00732 4.66671H4.66732ZM6.00065 4.66671H10.6627C11.0333 4.66671 11.334 4.96604 11.334 5.33804V10H13.334V2.66671H6.00065V4.66671ZM2.66932 6.00004L2.66732 13.3334H10.0007V6.00004H2.66932Z" fill="#5A5D79"/>
</g>
<defs>
<clipPath id="clip0_160_508">
<rect width="16" height="16" fill="white"/>
</clipPath>
</defs>
</svg>
