<svg width="16" height="16" viewBox="0 0 16 16" fill="none" xmlns="http://www.w3.org/2000/svg">
<path d="M10.5 5C10.0625 2.21875 8.96875 0.25 7.75 0.25C6.5 0.25 5.4375 2.21875 4.96875 5H10.5ZM4.75 8C4.75 8.71875 4.78125 9.375 4.84375 10H10.625C10.6875 9.375 10.7188 8.71875 10.7188 8C10.7188 7.3125 10.6875 6.65625 10.625 6H4.84375C4.78125 6.65625 4.75 7.3125 4.75 8ZM14.875 5C14 2.90625 12.1875 1.25 9.9375 0.59375C10.7188 1.65625 11.2188 3.25 11.5 5H14.875ZM5.53125 0.59375C3.28125 1.25 1.46875 2.90625 0.59375 5H3.96875C4.25 3.25 4.75 1.65625 5.53125 0.59375ZM15.2188 6H11.625C11.6875 6.65625 11.75 7.34375 11.75 8C11.75 8.6875 11.6875 9.34375 11.625 10H15.2188C15.375 9.375 15.4688 8.71875 15.4688 8C15.4688 7.3125 15.375 6.65625 15.2188 6ZM3.75 8C3.75 7.34375 3.78125 6.65625 3.84375 6H0.25C0.09375 6.65625 0 7.3125 0 8C0 8.71875 0.09375 9.375 0.25 10H3.84375C3.78125 9.34375 3.75 8.6875 3.75 8ZM4.96875 11C5.4375 13.8125 6.5 15.75 7.75 15.75C8.96875 15.75 10.0625 13.8125 10.5 11H4.96875ZM9.9375 15.4375C12.1875 14.7812 14 13.125 14.875 11H11.5C11.25 12.7812 10.7188 14.375 9.9375 15.4375ZM0.59375 11C1.46875 13.125 3.28125 14.7812 5.53125 15.4375C4.75 14.375 4.25 12.7812 3.96875 11H0.59375Z" fill="#A1A2B3"/>
</svg>
